<?xml version="1.0" standalone="no"?>
<!DOCTYPE svg PUBLIC "-//W3C//DTD SVG 20010904//EN"
 "http://www.w3.org/TR/2001/REC-SVG-20010904/DTD/svg10.dtd">
<svg version="1.0" xmlns="http://www.w3.org/2000/svg"
 width="286.000000pt" height="289.000000pt" viewBox="0 0 286.000000 289.000000"
 preserveAspectRatio="xMidYMid meet">

<g transform="translate(0.000000,289.000000) scale(0.100000,-0.100000)"
fill="#000000" stroke="none">
<path d="M1038 2579 c-10 -5 -18 -15 -18 -20 0 -6 7 -3 16 6 9 9 23 14 30 11
8 -3 14 -1 14 4 0 13 -20 12 -42 -1z"/>
<path d="M1130 2556 c0 -3 7 -12 16 -20 8 -9 11 -16 5 -16 -6 0 -11 -7 -11
-16 0 -8 -4 -13 -9 -9 -10 6 -24 -11 -27 -33 -5 -27 -14 -42 -26 -42 -7 0 -19
-14 -27 -31 -8 -18 -22 -34 -31 -36 -10 -3 -25 -23 -34 -46 -12 -31 -19 -38
-25 -28 -7 11 -10 9 -16 -8 -3 -11 -13 -21 -21 -21 -8 0 -14 -10 -14 -23 0
-33 -24 -61 -52 -62 -19 0 -23 -5 -22 -27 1 -15 -2 -25 -7 -23 -4 3 -9 -1 -12
-7 -3 -10 -7 -10 -20 1 -10 7 -17 10 -17 5 -1 -5 -10 2 -20 15 -27 31 -26 11
1 -23 21 -26 46 -37 33 -13 -4 7 -3 9 2 4 5 -5 9 -14 9 -20 0 -6 19 -22 42
-36 149 -91 181 -113 209 -138 17 -16 39 -41 49 -57 25 -37 9 -50 -63 -51 -90
0 -192 54 -296 159 -44 45 -78 78 -74 73 3 -5 2 -23 -3 -40 -6 -21 -5 -35 4
-46 10 -12 9 -14 -6 -8 -13 5 -17 3 -15 -5 5 -15 -9 -31 -34 -41 -10 -3 -18
-15 -18 -26 0 -11 -8 -25 -17 -30 -11 -6 -13 -11 -5 -11 18 0 4 -20 -14 -20
-8 0 -12 5 -9 10 3 6 1 10 -4 10 -15 0 -14 -12 4 -37 10 -14 22 -20 33 -17 14
5 15 4 2 -5 -13 -10 -11 -14 10 -31 53 -43 154 -93 222 -110 144 -38 178 -140
47 -140 -32 0 -89 26 -154 70 -59 40 -231 130 -237 125 -3 -3 -11 1 -18 10
-14 17 -40 20 -40 4 0 -5 5 -7 10 -4 17 11 11 -12 -10 -36 l-21 -24 7 34 c4
23 3 31 -5 27 -15 -10 -14 -150 3 -211 22 -81 42 -121 86 -169 63 -68 112 -87
260 -97 69 -4 177 -20 240 -34 63 -14 152 -29 198 -32 90 -7 98 -16 41 -46
-30 -16 -50 -18 -159 -13 -69 3 -165 15 -215 26 -75 17 -324 97 -389 125 -17
8 -18 4 -11 -56 30 -283 160 -436 354 -416 31 4 116 24 190 47 104 31 151 40
208 40 40 0 73 -4 73 -9 0 -20 -52 -70 -94 -89 -24 -12 -134 -40 -244 -63
-111 -23 -207 -46 -213 -50 -21 -12 36 -94 104 -149 75 -62 233 -141 342 -172
59 -16 108 -22 185 -22 93 -1 112 3 161 26 57 26 98 69 119 123 6 16 17 99 25
185 8 94 20 173 30 196 l17 39 37 -42 c21 -23 89 -115 152 -205 63 -89 145
-200 183 -247 64 -77 70 -82 83 -65 7 10 13 28 13 40 0 35 -100 162 -305 389
-49 55 -107 120 -127 144 l-37 44 -158 -101 c-185 -118 -294 -182 -308 -182
-5 0 53 41 129 90 167 110 306 211 306 225 0 6 -7 21 -16 33 -22 31 -77 29
-357 -13 -347 -52 -482 -65 -462 -46 6 5 120 23 255 41 261 34 510 76 523 89
5 5 -58 152 -77 178 0 0 -84 6 -186 12 -195 12 -429 43 -502 65 -66 21 -19 19
207 -10 110 -14 257 -28 327 -31 l127 -6 -9 34 c-5 19 -35 86 -66 150 l-56
116 -57 13 c-133 29 -387 108 -378 117 2 2 87 -17 188 -42 101 -25 194 -44
206 -43 22 3 22 4 -16 88 -21 47 -45 108 -55 136 -16 49 -22 54 -126 123 -122
80 -223 181 -181 181 5 0 15 -7 22 -17 20 -23 186 -148 231 -174 13 -7 10 10
-17 89 -18 53 -45 128 -60 166 -14 38 -24 81 -23 95 3 22 8 18 32 -34 15 -33
61 -158 103 -278 70 -202 77 -216 90 -197 24 35 61 133 84 224 26 105 45 114
35 19 -7 -79 -22 -130 -65 -232 -17 -40 -31 -82 -31 -93 0 -11 23 -75 51 -142
28 -66 55 -132 61 -145 l9 -24 40 39 c62 59 107 125 166 242 44 88 53 100 48
67 -11 -66 -77 -194 -152 -294 -81 -107 -81 -94 -6 -224 l39 -66 47 27 c27 15
104 84 173 152 68 69 124 119 124 112 0 -7 -72 -84 -160 -172 -88 -88 -160
-165 -160 -171 0 -22 50 -99 64 -99 23 0 196 37 326 70 67 17 124 29 127 27
15 -15 -224 -90 -345 -107 -52 -8 -82 -17 -82 -25 0 -17 45 -83 88 -128 41
-43 151 -114 227 -148 45 -20 54 -21 113 -10 243 45 275 187 196 874 l-7 58
-51 -95 c-64 -119 -125 -204 -178 -247 -42 -33 -139 -78 -170 -79 -50 0 -19
65 52 110 106 68 207 224 236 363 19 89 13 125 -36 207 -21 36 -47 97 -59 136
-21 70 -53 114 -83 114 -12 0 -16 -19 -21 -97 -8 -114 -27 -195 -67 -273 -35
-69 -107 -147 -122 -132 -18 18 6 111 62 241 61 145 84 231 75 279 -11 58 -43
110 -88 143 -45 33 -130 79 -146 79 -5 0 -12 -24 -16 -52 -10 -76 -28 -142
-64 -232 -22 -53 -37 -116 -47 -193 -8 -63 -19 -126 -25 -140 -15 -41 -49 -83
-66 -83 -24 0 -12 150 25 295 17 66 36 158 43 204 18 124 0 278 -35 314 -9 9
-74 20 -180 31 -92 9 -188 24 -214 32 -53 16 -52 15 -52 10z m65 -44 c-3 -3
-11 0 -18 7 -9 10 -8 11 6 5 10 -3 15 -9 12 -12z m-498 -547 c-15 -16 -22 -11
-13 10 3 9 10 13 16 10 6 -4 5 -11 -3 -20z m1133 -434 c0 -65 -63 -161 -107
-161 -23 0 -24 2 -18 48 14 102 42 141 103 142 18 0 22 -5 22 -29z m-636 -13
c58 -23 126 -87 126 -117 0 -64 -204 -65 -265 -1 -18 19 -29 43 -32 73 -5 38
-2 47 18 61 29 21 77 16 153 -16z"/>
<path d="M711 2194 c0 -11 3 -14 6 -6 3 7 2 16 -1 19 -3 4 -6 -2 -5 -13z"/>
<path d="M620 1914 c0 -8 5 -12 10 -9 6 3 10 10 10 16 0 5 -4 9 -10 9 -5 0
-10 -7 -10 -16z"/>
<path d="M531 1858 c-1 -16 4 -28 9 -28 12 0 12 8 0 35 -8 18 -9 17 -9 -7z"/>
</g>
</svg>
