<?xml version="1.0" standalone="no"?>
<!DOCTYPE svg PUBLIC "-//W3C//DTD SVG 20010904//EN"
 "http://www.w3.org/TR/2001/REC-SVG-20010904/DTD/svg10.dtd">
<svg version="1.0" xmlns="http://www.w3.org/2000/svg"
 width="30.000000pt" height="30.000000pt" viewBox="0 0 512.000000 512.000000"
 preserveAspectRatio="xMidYMid meet">

<g transform="translate(0.000000,512.000000) scale(0.100000,-0.100000)"
fill="#000000" stroke="none">
<path d="M2503 4935 c-26 -18 -131 -190 -196 -321 -146 -291 -248 -633 -289
-964 -7 -59 -13 -206 -13 -335 1 -257 10 -310 79 -459 l35 -76 440 0 441 0 30
60 c61 121 82 218 87 406 14 454 -81 903 -277 1311 -80 167 -192 356 -223 378
-12 8 -37 15 -57 15 -20 0 -45 -7 -57 -15z"/>
<path d="M1900 4665 c-33 -35 -31 -81 4 -112 34 -28 65 -29 100 -2 20 16 26
29 26 59 0 71 -82 106 -130 55z"/>
<path d="M3045 4665 c-16 -15 -25 -36 -25 -55 0 -36 38 -80 69 -80 62 0 103
56 81 110 -23 55 -84 67 -125 25z"/>
<path d="M553 4606 c-24 -21 -29 -34 -33 -88 l-5 -63 -63 -5 c-54 -4 -67 -9
-88 -33 -40 -47 -26 -125 27 -153 16 -8 51 -14 79 -14 l50 0 0 -50 c0 -105 68
-157 150 -115 40 20 50 43 50 109 l0 56 50 0 c56 0 104 20 120 49 18 35 12 88
-14 118 -21 24 -34 29 -88 33 l-63 5 -5 63 c-4 54 -9 67 -33 88 -19 16 -40 24
-67 24 -27 0 -48 -8 -67 -24z"/>
<path d="M4438 4601 c-27 -24 -32 -36 -36 -90 l-4 -61 -58 0 c-48 0 -61 -4
-83 -25 -33 -34 -40 -72 -19 -115 21 -43 53 -60 113 -60 l47 0 4 -61 c4 -54 9
-66 36 -90 22 -20 43 -29 67 -29 24 0 45 9 67 29 27 24 32 36 36 90 l4 61 53
0 c43 0 60 5 84 26 38 32 49 80 27 122 -21 41 -44 52 -109 52 l-55 0 -4 61
c-4 54 -9 66 -36 90 -22 20 -43 29 -67 29 -24 0 -45 -9 -67 -29z"/>
<path d="M1294 4595 c-42 -29 -48 -64 -41 -258 10 -279 41 -476 118 -748 66
-235 171 -472 310 -699 l64 -105 102 -3 101 -3 -24 61 c-63 155 -68 193 -68
485 0 311 17 466 84 730 21 83 40 156 42 164 7 32 -300 241 -508 345 -96 49
-144 57 -180 31z"/>
<path d="M3620 4549 c-127 -68 -371 -227 -438 -286 l-43 -38 35 -136 c74 -288
100 -515 93 -821 -4 -227 -19 -313 -73 -435 l-23 -53 102 0 103 0 76 128 c263
441 390 857 419 1371 13 233 9 271 -32 306 -49 40 -87 34 -219 -36z"/>
<path d="M4017 3580 c-55 -4 -102 -12 -106 -16 -4 -5 -24 -60 -45 -123 -61
-186 -169 -419 -278 -598 l-38 -63 229 0 c242 0 290 -7 350 -49 17 -13 36 -19
43 -15 7 4 57 45 110 91 167 144 342 340 467 522 40 58 51 83 51 114 0 58 -38
91 -120 105 -185 32 -489 47 -663 32z"/>
<path d="M605 3569 c-182 -20 -229 -31 -257 -60 -48 -48 -40 -89 38 -200 138
-194 299 -372 473 -522 l93 -80 62 34 61 34 243 3 c133 2 242 6 242 9 0 2 -23
43 -50 89 -101 170 -190 366 -259 571 l-41 118 -42 7 c-59 9 -477 7 -563 -3z"/>
<path d="M1069 2591 l-29 -29 0 -362 0 -362 29 -29 29 -29 1462 0 1462 0 29
29 29 29 0 362 0 362 -29 29 -29 29 -1462 0 -1462 0 -29 -29z"/>
<path d="M369 1951 c-26 -26 -29 -36 -29 -90 l0 -61 -61 0 c-54 0 -64 -3 -90
-29 -22 -22 -29 -39 -29 -68 1 -67 46 -103 129 -103 l51 0 0 -61 c0 -54 3 -64
29 -90 23 -23 38 -29 71 -29 33 0 48 6 71 29 26 26 29 36 29 90 l0 61 61 0
c54 0 64 3 90 29 38 39 40 97 5 138 -21 24 -34 29 -88 33 l-63 5 -5 63 c-4 54
-9 67 -33 88 -41 35 -99 33 -138 -5z"/>
<path d="M4629 1951 c-26 -26 -29 -36 -29 -90 l0 -61 -61 0 c-54 0 -64 -3 -90
-29 -21 -22 -29 -39 -29 -66 0 -71 42 -105 130 -105 l50 0 0 -50 c0 -61 19
-102 55 -118 45 -21 84 -15 116 17 26 26 29 36 29 90 l0 61 61 0 c54 0 64 3
90 29 38 39 40 97 5 138 -21 24 -34 29 -88 33 l-63 5 -5 63 c-4 54 -9 67 -33
88 -41 35 -99 33 -138 -5z"/>
<path d="M1311 1608 c0 -7 13 -119 27 -248 l28 -235 1194 0 1194 0 28 235 c14
129 27 241 27 248 1 9 -255 12 -1249 12 -994 0 -1250 -3 -1249 -12z"/>
<path d="M1394 873 c3 -21 22 -179 42 -352 36 -326 42 -348 90 -369 18 -9 293
-12 1035 -12 1084 0 1051 -1 1078 49 6 10 26 159 46 332 19 173 38 331 41 352
l6 37 -1172 0 -1172 0 6 -37z"/>
</g>
</svg>
